HIERARCHY
ROOT ROOT
{
	OFFSET 0.000000 56.020000 -5.659234
	CHANNELS 6 Xposition Yposition Zposition Xrotation Yrotation Zrotation 
	JOINT C_spine0001_bind_JNT
	{
		OFFSET 0.000000 1.618999 0.000000
		CHANNELS 3 Xrotation Yrotation Zrotation
		JOINT C_spine0002_bind_JNT
		{
			OFFSET 0.000000 4.942001 0.000001
			CHANNELS 3 Xrotation Yrotation Zrotation
			JOINT C_spine0003_bind_JNT
			{
				OFFSET 0.000000 4.942001 -0.000000
				CHANNELS 3 Xrotation Yrotation Zrotation
				JOINT C_neck0001_bind_JNT
				{
					OFFSET 0.000000 17.026009 -0.000000
					CHANNELS 3 Xrotation Yrotation Zrotation
					JOINT C_neck0002_bind_JNT
					{
						OFFSET 0.000000 3.249985 0.000000
						CHANNELS 3 Xrotation Yrotation Zrotation
						JOINT C_head_bind_JNT
						{
							OFFSET 0.000000 5.278008 0.000000
							CHANNELS 3 Xrotation Yrotation Zrotation
							End Site
							{
								OFFSET 0.000000 0.000000 0.000000
							}
						}
					}
				}
				JOINT L_clavicle_bind_JNT
				{
					OFFSET 4.590000 12.067001 0.834000
					CHANNELS 3 Xrotation Yrotation Zrotation
					JOINT L_armUpper0001_bind_JNT
					{
						OFFSET 7.812635 0.512001 -3.452945
						CHANNELS 3 Xrotation Yrotation Zrotation
						JOINT L_armLower0001_bind_JNT
						{
							OFFSET 15.265892 -6.552116 -0.058157
							CHANNELS 3 Xrotation Yrotation Zrotation
							JOINT L_hand0001_bind_JNT
							{
								OFFSET 14.747667 -6.369995 5.049225
								CHANNELS 3 Xrotation Yrotation Zrotation
								End Site
								{
									OFFSET 0.000000 0.000000 0.000000
								}
							}
						}
					}
				}
				JOINT R_clavicle_bind_JNT
				{
					OFFSET -4.590000 12.067001 0.834000
					CHANNELS 3 Xrotation Yrotation Zrotation
					JOINT R_armUpper0001_bind_JNT
					{
						OFFSET -7.812635 0.512001 -3.452945
						CHANNELS 3 Xrotation Yrotation Zrotation
						JOINT R_armLower0001_bind_JNT
						{
							OFFSET -15.265890 -6.552124 -0.058160
							CHANNELS 3 Xrotation Yrotation Zrotation
							JOINT R_hand0001_bind_JNT
							{
								OFFSET -14.746784 -6.369629 5.048937
								CHANNELS 3 Xrotation Yrotation Zrotation
								End Site
								{
									OFFSET 0.000000 0.000000 0.000000
								}
							}
						}
					}
				}
			}
		}
	}
	JOINT C_pelvis0001_bind_JNT
	{
		OFFSET -0.000000 0.000000 0.000000
		CHANNELS 3 Xrotation Yrotation Zrotation
		JOINT L_legUpper0001_bind_JNT
		{
			OFFSET 6.599999 -6.027000 0.539000
			CHANNELS 3 Xrotation Yrotation Zrotation
			JOINT L_legLower0001_bind_JNT
			{
				OFFSET -0.140713 -19.187443 0.040261
				CHANNELS 3 Xrotation Yrotation Zrotation
				JOINT L_foot0001_bind_JNT
				{
					OFFSET -0.132215 -18.028637 -1.138370
					CHANNELS 3 Xrotation Yrotation Zrotation
					JOINT L_foot0002_bind_JNT
					{
						OFFSET 0.007014 -4.693133 9.886524
						CHANNELS 3 Xrotation Yrotation Zrotation
						End Site
						{
							OFFSET 0.000000 0.000000 0.000000
						}
					}
				}
			}
		}
		JOINT R_legUpper0001_bind_JNT
		{
			OFFSET -6.599999 -6.027000 0.539000
			CHANNELS 3 Xrotation Yrotation Zrotation
			JOINT R_legLower0001_bind_JNT
			{
				OFFSET 0.140710 -19.187164 0.040550
				CHANNELS 3 Xrotation Yrotation Zrotation
				JOINT R_foot0001_bind_JNT
				{
					OFFSET 0.132215 -18.028633 -1.138362
					CHANNELS 3 Xrotation Yrotation Zrotation
					JOINT R_foot0002_bind_JNT
					{
						OFFSET -0.007014 -4.693128 9.886505
						CHANNELS 3 Xrotation Yrotation Zrotation
						End Site
						{
							OFFSET 0.000000 0.000000 0.000000
						}
					}
				}
			}
		}
	}
}
MOTION
Frames: 8
Frame Time: 0.033333
4.422863 47.307480 28.470261 179.716599 -89.403893 179.692276 -13.574604 81.589653 10.647900 9.489039 -8.949869 6.551080 4.561667 -8.492471 2.266770 -0.108789 0.532167 -1.785329 2.438565 -2.724560 0.067757 34.321625 0.216932 -0.195844 -6.926087 11.885784 0.540273 -13.652523 0.052594 -39.656593 -26.965307 -7.542522 -21.021353 10.874393 -19.335629 -5.365200 -3.647347 -13.518208 1.342502 -1.642447 -20.523451 40.812939 -4.458354 17.711794 10.676559 20.759129 26.332853 11.934683 13.171339 82.477432 -15.080237 12.784266 -1.300624 -7.256362 11.527133 -3.049475 2.486547 -6.219388 -16.936371 4.887028 -13.221236 -0.023423 0.992355 -21.324295 -0.949386 5.283834 3.125141 -2.523610 -2.249048 10.563265 11.101475 2.939556 0.053597 1.445545 -0.787131 
4.380388 47.244514 30.104591 -179.542801 -88.863571 -179.579681 -13.522950 82.919937 10.654596 9.471872 -9.188588 7.024784 4.496134 -8.583945 2.614951 -0.129524 0.518168 -1.800315 2.373063 -2.634149 0.074794 34.361111 -0.075687 -0.604665 -6.725507 11.456079 0.387445 -14.069613 0.489470 -38.903305 -27.492025 -9.094799 -21.817369 11.294763 -20.127527 -5.455234 -3.611257 -13.331035 1.527306 -1.308473 -21.923239 40.578880 -4.597613 17.419802 10.944307 21.545919 25.553038 11.865989 15.813075 83.718399 -17.621540 13.399456 -1.324872 -7.057875 12.594517 -1.738410 1.713073 -3.767351 -19.085960 4.660994 -17.388258 -0.020313 0.717505 -20.388929 -0.891319 5.525424 5.587844 -1.840074 -1.778995 10.737892 10.230226 0.380425 0.630397 1.590802 -0.695433 
4.158292 47.198574 31.737894 179.466080 -88.314133 179.436691 -14.050457 83.700912 10.997872 9.334466 -9.206594 7.739842 4.623720 -8.520030 2.930221 -0.363690 0.761630 -1.617753 2.560772 -2.729083 -0.167021 34.896431 -0.084883 -0.546722 -6.662594 11.562681 0.398292 -13.702607 0.608853 -38.799702 -27.769400 -10.256965 -22.483566 11.712007 -21.439186 -4.751405 -3.710461 -13.243671 1.609696 -0.672172 -22.559338 40.633926 -4.368397 16.616436 10.239937 20.989016 25.359259 12.428647 18.024431 84.592445 -19.833570 12.330300 -1.147881 -6.090969 17.117325 -0.526325 0.360758 -1.178331 -20.823515 3.636989 -22.174332 0.126726 0.559875 -20.627554 -0.664540 5.945657 9.734698 -1.849474 -1.489770 9.920761 9.799786 -1.357619 0.002245 1.353609 -0.952706 
3.845995 47.039829 33.494400 -179.790085 -88.022751 -179.830917 -15.236841 84.392014 11.870781 9.553041 -9.115245 8.440705 4.832118 -8.427343 3.561368 -0.139310 0.879221 -1.526659 2.363475 -2.504445 -0.021348 35.311142 -0.924164 -1.482010 -6.753652 11.859431 0.122004 -12.535835 1.546391 -39.013428 -27.537397 -11.977342 -22.922611 11.985480 -22.716017 -4.406394 -3.658956 -12.734726 1.690339 -0.300927 -23.381788 40.767498 -4.075410 16.721973 10.527204 20.850519 24.097984 12.189275 17.912144 85.284943 -20.010481 8.496279 -0.313849 -4.560520 25.275541 1.743551 -1.223835 2.020355 -24.072832 0.147337 -25.708126 -0.471688 1.565251 -19.941109 -0.772554 6.699798 14.044502 -1.357811 -0.759502 7.408586 9.289783 -2.914969 -0.805582 1.239015 -1.090695 
3.450121 46.932686 35.365883 179.719223 -87.534706 179.660583 -19.029737 85.039818 15.432339 9.691214 -8.680593 9.269394 5.239857 -8.026782 3.681137 -0.159360 0.630515 -1.215315 2.556254 -3.017970 -0.160767 35.164036 -1.268322 -1.324985 -6.395462 11.807824 -0.192146 -11.442288 2.347617 -39.223427 -26.493286 -12.745957 -23.392323 11.847771 -24.259809 -4.724344 -3.495715 -12.779660 1.790688 -0.502160 -23.733953 40.462490 -4.290797 16.888828 11.110449 20.648211 23.349846 12.395476 18.473211 85.896057 -20.766613 1.942569 0.740724 -1.585960 37.864670 3.014915 -3.587643 5.720340 -26.346939 -2.601914 -23.855125 -0.508710 1.481761 -19.549789 -1.179725 7.570421 18.295485 -1.046915 -0.506212 3.618038 8.843205 -4.481260 -1.302878 1.318354 -1.079872 
3.113935 46.741951 37.367500 179.731796 -87.267120 179.680664 -20.008644 85.222908 16.556641 10.262938 -7.893412 9.409218 5.465585 -7.628494 3.886290 -0.290546 0.526856 -0.906824 2.377722 -3.940169 0.086459 34.918854 -1.660561 -1.535925 -6.752444 11.950662 -0.116427 -8.907780 3.720057 -39.765278 -24.691833 -13.509072 -24.016413 11.300579 -25.736454 -5.269455 -3.444323 -12.516479 1.875592 -0.284475 -23.515186 40.960369 -4.823671 17.156803 11.571620 20.130510 22.852991 12.722583 19.233553 86.227623 -21.847965 -5.803201 0.147662 1.593586 50.394966 4.275244 -5.843644 7.795135 -27.746136 -5.406961 -11.708554 0.127794 -0.006302 -18.897457 -1.221354 8.228164 22.652637 -1.077520 -0.265889 -0.860597 8.901457 -5.554753 -1.375971 1.087734 -0.967853 
2.958168 46.762783 39.257484 179.777969 -86.881210 179.718903 -19.558870 85.153053 16.108170 11.035115 -7.039001 9.919530 5.557568 -6.507902 4.041339 -0.107675 0.249578 -0.744580 2.303692 -5.456578 0.297430 33.677013 -2.132055 -1.916016 -6.661369 11.569303 -0.734020 -6.379578 5.129094 -40.535660 -21.568153 -13.050366 -24.126143 10.734419 -27.731174 -6.988538 -3.318009 -12.347989 1.901539 -0.571253 -22.998224 41.147320 -5.975310 18.370752 13.161362 20.393518 22.356306 13.093311 23.096018 86.016899 -25.578577 -14.586044 -0.738643 4.215743 63.230984 3.839674 -8.553430 7.566940 -26.744555 -5.834410 0.130831 0.457299 -0.398769 -17.707207 -1.656405 8.059629 24.784555 0.260994 -0.655200 -3.911647 9.216374 -5.460147 -1.735175 1.223346 -1.032980 
2.968619 46.988041 40.862217 179.859665 -86.555359 179.819061 -17.452072 84.421700 14.287643 11.856928 -5.985044 9.649814 5.857439 -5.466324 4.236021 -0.248705 -0.004264 -0.622469 2.283964 -6.639897 0.550526 32.811035 -2.321683 -1.499973 -6.590928 11.700377 -0.972310 -4.182428 6.547852 -42.182415 -17.360325 -11.255165 -22.692823 10.311800 -28.747011 -8.983431 -4.091783 -12.160146 1.413361 -0.090922 -21.660402 41.700005 -7.472011 20.206261 14.572092 19.742104 21.882917 13.908784 18.833458 85.462440 -21.194180 -21.311207 -1.984666 5.536699 70.885559 3.278698 -9.775181 5.283819 -22.415970 -5.382576 5.264355 0.463838 -0.715481 -16.449245 -1.331508 7.888220 26.366732 1.157900 -0.829608 -6.081265 9.151245 -5.032146 -2.260235 0.952146 -1.370991 
